<svg id="Icons" height="512" viewBox="0 0 74 74" width="512" xmlns="http://www.w3.org/2000/svg"><path d="m67 54.115h-38.23a1 1 0 0 1 0-2h38.23a3 3 0 0 0 0-6h-32.235a3.911 3.911 0 0 1 -3.87-3.278l-5.612-33.675h-5.312a1 1 0 0 1 0-2h6.159a1 1 0 0 1 .986.838l5.752 34.509a1.917 1.917 0 0 0 1.9 1.607h32.232a5 5 0 0 1 0 10z"/><path d="m64.69 39.39h-33.52a1 1 0 0 1 0-2h33.52a.758.758 0 0 0 .746-.626l3.77-20.951a.757.757 0 0 0 -.169-.623.746.746 0 0 0 -.577-.27h-6.02a1 1 0 0 1 0-2h6.02a2.763 2.763 0 0 1 2.715 3.244l-3.775 20.953a2.755 2.755 0 0 1 -2.71 2.273z"/><path d="m45.47 14.92h-2.91a1 1 0 0 1 0-2h2.91a1 1 0 0 1 0 2z"/><path d="m35.56 14.92h-8.47a1 1 0 0 1 0-2h8.47a1 1 0 0 1 0 2z"/><path d="m55.44 14.92h-2.97a1 1 0 0 1 0-2h2.97a1 1 0 0 1 0 2z"/><path d="m59.771 66.838a4.994 4.994 0 1 1 4.994-4.994 5 5 0 0 1 -4.994 4.994zm0-7.987a2.994 2.994 0 1 0 2.994 2.993 3 3 0 0 0 -2.994-2.993z"/><path d="m37.208 66.838a4.994 4.994 0 1 1 4.992-4.994 5 5 0 0 1 -4.992 4.994zm0-7.987a2.994 2.994 0 1 0 2.992 2.993 3 3 0 0 0 -2.992-2.993z"/><path d="m56.288 31.215a1.083 1.083 0 0 1 -.127-.008 1 1 0 0 1 -.867-1.118l1.286-10.178a1 1 0 1 1 1.984.251l-1.286 10.178a1 1 0 0 1 -.99.875z"/><path d="m48.652 31.215a1 1 0 0 1 -1-1v-10.178a1 1 0 1 1 2 0v10.178a1 1 0 0 1 -1 1z"/><path d="m41.018 31.215a1 1 0 0 1 -.991-.875l-1.286-10.178a1 1 0 1 1 1.984-.251l1.286 10.178a1 1 0 0 1 -.866 1.118 1.1 1.1 0 0 1 -.127.008z"/><path d="m22.435 37.875h-12.625a1 1 0 0 1 0-2h12.625a1 1 0 1 1 0 2z"/><path d="m5.084 37.875h-2.084a1 1 0 0 1 0-2h2.084a1 1 0 1 1 0 2z"/><path d="m25.017 31.639h-12.625a1 1 0 0 1 0-2h12.625a1 1 0 0 1 0 2z"/><path d="m7.667 31.639h-2.085a1 1 0 1 1 0-2h2.085a1 1 0 0 1 0 2z"/><path d="m25.017 44.11h-12.625a1 1 0 1 1 0-2h12.625a1 1 0 0 1 0 2z"/><path d="m7.667 44.11h-2.085a1 1 0 0 1 0-2h2.085a1 1 0 1 1 0 2z"/></svg>